<svg xmlns="http://www.w3.org/2000/svg" xmlns:xlink="http://www.w3.org/1999/xlink" width="102.00003051757812" height="124.00003051757812" viewBox="0 0 102.00003051757812 124.00003051757812" fill="none"><path d="M60 4L100 43.9996L100 110C100 117.732 93.732 124 86 124L14 124C6.268 124 0 117.732 0 110L0 18.0004C0 10.2676 6.268 4 14 4L60 4Z"   fill="url(#linear_fill_6E2DB59E-CAA7-41C9-8D8E-18E60FBBC084)" ></path><g filter="url(#filter_9FC454B5-201B-4037-BE5B-D6308BBCCA88)"><path d="M100 44L74.7072 44C66.9752 44 60 37.0248 60 29.2928L60 4L100 44Z"   fill="#FFFFFF" fill-opacity="0.4"></path></g><path   fill-rule="evenodd"  fill="#FFFFFF"  d="M21 59L61 59L61 64L21 64L21 59ZM21 69L61 69L61 74L21 74L21 69ZM21 79L61 79L61 84L21 84L21 79ZM21 89L41 89L41 94L21 94L21 89Z"></path><defs><linearGradient id="linear_fill_6E2DB59E-CAA7-41C9-8D8E-18E60FBBC084" x1="50" y1="4" x2="50" y2="124" gradientUnits="userSpaceOnUse"><stop offset="0" stop-color="#5895FF"  /><stop offset="1" stop-color="#387CF4"  /></linearGradient><filter id="filter_9FC454B5-201B-4037-BE5B-D6308BBCCA88" x="58" y="0" width="44.000030517578125" height="44" filterUnits="userSpaceOnUse" color-interpolation-filters="sRGB"><feFlood flood-opacity="0" result="feFloodId_9FC454B5-201B-4037-BE5B-D6308BBCCA88"/><feColorMatrix in="SourceAlpha" type="matrix" values="0 0 0 0 0 0 0 0 0 0 0 0 0 0 0 0 0 0 127 0" result="hardAlpha_9FC454B5-201B-4037-BE5B-D6308BBCCA88"/><feOffset dx="0" dy="-2"/><feGaussianBlur stdDeviation="1"/><feComposite in2="hardAlpha_9FC454B5-201B-4037-BE5B-D6308BBCCA88" operator="out"/><feColorMatrix type="matrix" values="0 0 0 0 0 0 0 0 0 0 0 0 0 0 0 0 0 0 0.09 0"/><feBlend mode="normal" in2="feFloodId_9FC454B5-201B-4037-BE5B-D6308BBCCA88" result="dropShadow_1_9FC454B5-201B-4037-BE5B-D6308BBCCA88"/><feBlend mode="normal" in="SourceGraphic" in2="dropShadow_1_9FC454B5-201B-4037-BE5B-D6308BBCCA88" result="shape_9FC454B5-201B-4037-BE5B-D6308BBCCA88"/></filter></defs></svg>