<svg xmlns="http://www.w3.org/2000/svg" xmlns:xlink="http://www.w3.org/1999/xlink" width="100" height="120" viewBox="0 0 100 120" fill="none"><path d="M60 0L100 39.9996L100 106C100 113.732 93.732 120 86 120L14 120C6.268 120 0 113.732 0 106L0 14.0004C0 6.2676 6.268 0 14 0L60 0Z"   fill="url(#linear_fill_E822B787-9B93-46A2-A647-DBA61452D2C3)" ></path><g mask="url(#mask-E822B787-9B93-46A2-A647-DBA61452D2C3)"><g filter="url(#filter_319E13DD-903D-49C3-A924-1BAE817B43AA)"><path d="M100 40L74.7072 40C66.9752 40 60 33.0248 60 25.2928L60 0L100 40Z"   fill="#FFFFFF" fill-opacity="0.4"></path></g></g><path d="M38 44L45 44L45 50.3878L38 50.3878L38 56.7754L31 56.7754L31 50.3876L38 50.3876L38 44ZM45 56.7756L38 56.7756L38 63.1629L31 63.1629L31 69.5507L38 69.5507L38 63.1634L45 63.1634L45 56.7756ZM45 69.551L38 69.551L38 75.9388L45 75.9388L45 69.551ZM31 76.1752L38 76.1752L38 82.563L31 82.563L31 76.1752ZM45 98L45 85.2245L31 85.2245L31 98L45 98Z" fill-rule="evenodd"  fill="#FFFFFF" ></path><defs><linearGradient id="linear_fill_E822B787-9B93-46A2-A647-DBA61452D2C3" x1="50" y1="0" x2="50" y2="120" gradientUnits="userSpaceOnUse"><stop offset="0" stop-color="#E66E32"  /><stop offset="1" stop-color="#570B0B"  /></linearGradient><mask id="mask-E822B787-9B93-46A2-A647-DBA61452D2C3" style="mask-type:alpha" maskUnits="userSpaceOnUse"><path d="M60 0L100 39.9996L100 106C100 113.732 93.732 120 86 120L14 120C6.268 120 0 113.732 0 106L0 14.0004C0 6.2676 6.268 0 14 0L60 0Z"   fill="url(#linear_fill_E822B787-9B93-46A2-A647-DBA61452D2C3)" ></path></mask><filter id="filter_319E13DD-903D-49C3-A924-1BAE817B43AA" x="58" y="-4" width="44" height="44" filterUnits="userSpaceOnUse" color-interpolation-filters="sRGB"><feFlood flood-opacity="0" result="feFloodId_319E13DD-903D-49C3-A924-1BAE817B43AA"/><feColorMatrix in="SourceAlpha" type="matrix" values="0 0 0 0 0 0 0 0 0 0 0 0 0 0 0 0 0 0 127 0" result="hardAlpha_319E13DD-903D-49C3-A924-1BAE817B43AA"/><feOffset dx="0" dy="-2"/><feGaussianBlur stdDeviation="1"/><feComposite in2="hardAlpha_319E13DD-903D-49C3-A924-1BAE817B43AA" operator="out"/><feColorMatrix type="matrix" values="0 0 0 0 0 0 0 0 0 0 0 0 0 0 0 0 0 0 0.09 0"/><feBlend mode="normal" in2="feFloodId_319E13DD-903D-49C3-A924-1BAE817B43AA" result="dropShadow_1_319E13DD-903D-49C3-A924-1BAE817B43AA"/><feBlend mode="normal" in="SourceGraphic" in2="dropShadow_1_319E13DD-903D-49C3-A924-1BAE817B43AA" result="shape_319E13DD-903D-49C3-A924-1BAE817B43AA"/></filter></defs></svg>